<svg viewBox="0 0 16 15" fill="none" xmlns="http://www.w3.org/2000/svg">
<path d="M9.38349 8.82537C9.13847 9.81454 7.47775 9.27911 6.93326 9.14299L7.36885 7.39153C7.91335 7.52765 9.63759 7.79082 9.38349 8.82537ZM7.9678 4.99577L7.5685 6.58386C8.02225 6.69276 9.41072 7.15558 9.63759 6.25716C9.86446 5.32247 8.42155 5.10467 7.9678 4.99577ZM15.0463 9.06132C14.0752 12.9454 10.1367 15.3139 6.24356 14.352C2.35949 13.381 -0.0181437 9.44246 0.952875 5.55839C1.92389 1.66527 5.86242 -0.694214 9.75556 0.267729C13.6396 1.23875 16.0173 5.17727 15.0463 9.06132ZM5.61739 8.52589C5.58109 8.62572 5.48127 8.77092 5.2544 8.71647C5.2181 8.71647 4.6736 8.57127 4.6736 8.57127L4.2743 9.47876L5.30884 9.73286C5.50849 9.78731 5.68999 9.83268 5.88057 9.88713L5.55387 11.203L6.34339 11.4026L6.67008 10.0959C6.88788 10.1594 7.09661 10.2048 7.30533 10.2592L6.97863 11.5569L7.77723 11.7566L8.10392 10.4407C9.46516 10.6948 10.4906 10.595 10.9172 9.36079C11.262 8.37162 10.899 7.7999 10.1821 7.42783C10.6994 7.30985 11.0896 6.965 11.1985 6.25716C11.3437 5.29524 10.6086 4.7689 9.60129 4.43313L9.92799 3.11726L9.12939 2.91761L8.81177 4.1881C8.60305 4.13365 8.38525 4.08828 8.16745 4.03383L8.48507 2.75426L7.69555 2.55461L7.36885 3.8614C7.19643 3.8251 7.02401 3.77973 6.86066 3.74343L5.76259 3.46211L5.55387 4.31515C5.55387 4.31515 6.13466 4.45127 6.13466 4.46035C6.45229 4.54202 6.50674 4.75075 6.50674 4.92317L5.60832 8.50774L5.61739 8.52589Z" fill="#613FDD"/>
</svg>
