<svg viewBox="0 0 14 15" fill="none" xmlns="http://www.w3.org/2000/svg">
<path d="M7.26603 7.13689L12.8992 3.58414C12.6863 3.25269 12.397 2.97708 12.0557 2.78037L7.90319 0.383594C7.13929 -0.057593 6.198 -0.057593 5.43407 0.383594L1.28152 2.78037C0.981786 2.95356 0.721866 3.18793 0.518677 3.46822L6.34575 7.13691C6.62715 7.3133 6.98463 7.3133 7.26603 7.13689ZM5.70091 3.30129C5.70074 2.76685 6.13387 2.33344 6.66835 2.33327C7.20279 2.3331 7.6362 2.76623 7.63637 3.3007C7.63654 3.83518 7.20341 4.26856 6.66894 4.26873C6.66884 4.26873 6.66874 4.26873 6.66864 4.26873C6.13429 4.26871 5.70106 3.83562 5.70091 3.30129Z" fill="#613FDD"/>
<path d="M6.61287 7.61925C6.44803 7.59389 6.29013 7.53507 6.14888 7.4464L0.324477 3.77921C0.141442 4.13091 0.04585 4.52153 0.0457764 4.91799V9.71302C0.0459973 10.5951 0.516692 11.4102 1.28062 11.8513L5.43316 14.2486C5.79243 14.4563 6.19829 14.5699 6.61317 14.5789C6.61317 14.5789 6.61317 14.5774 6.61317 14.5765L6.61287 7.61925ZM1.54776 11.0098C1.16055 10.7246 0.856666 10.0878 0.856666 9.58284C0.856666 9.07792 1.16205 8.87127 1.54926 9.131C1.94832 9.39784 2.28098 10.0519 2.28098 10.5838C2.28098 11.1157 1.94682 11.3048 1.54776 11.0098ZM4.51615 9.60243C4.12895 9.31602 3.82356 8.68036 3.82356 8.17544C3.82356 7.67053 4.12895 7.46388 4.51615 7.7236C4.91521 7.99044 5.24758 8.64447 5.24758 9.17786C5.24758 9.71123 4.91521 9.89743 4.51615 9.60243Z" fill="#613FDD"/>
<path d="M13.0722 3.90689L7.46154 7.44778C7.31553 7.53962 7.15174 7.59954 6.98096 7.6236V14.5613C7.30583 14.5199 7.61917 14.4142 7.90273 14.2503L12.0553 11.8526C12.8193 11.4115 13.29 10.5963 13.2901 9.71411V4.91937C13.29 4.57024 13.2157 4.22514 13.0722 3.90689ZM8.57573 13.1491C8.18853 13.4077 7.88314 13.2022 7.88314 12.6973C7.88314 12.1924 8.18853 11.5567 8.57573 11.2703C8.97479 10.9739 9.30716 11.1615 9.30716 11.6949C9.30716 12.2283 8.97482 12.8826 8.57573 13.1491ZM8.57573 9.63167C8.18853 9.89019 7.88314 9.68475 7.88314 9.17983C7.88314 8.67492 8.18853 8.03926 8.57573 7.75285C8.97479 7.45755 9.30686 7.64405 9.30686 8.17621C9.30686 8.70838 8.97482 9.36515 8.57573 9.63167ZM11.8225 11.0483C11.4353 11.3068 11.1299 11.1016 11.1299 10.5964C11.1299 10.0912 11.4353 9.45586 11.8225 9.16945C12.2216 8.87445 12.554 9.06065 12.554 9.59402C12.554 10.1274 12.2216 10.7817 11.8225 11.0483ZM11.8225 7.5308C11.4353 7.79082 11.1299 7.58329 11.1299 7.07926C11.1299 6.57523 11.4353 5.93868 11.8225 5.65227C12.2216 5.3558 12.554 5.54377 12.554 6.07684C12.554 6.60991 12.2216 7.26426 11.8225 7.5308Z" fill="#613FDD"/>
</svg>
