<svg viewBox="0 0 15 15" fill="none" xmlns="http://www.w3.org/2000/svg">
<g clip-path="url(#clip0_280_737)">
<path d="M7.33416 0.0523987C3.3226 0.0523987 0.0703125 3.30469 0.0703125 7.31624C0.0703125 11.3278 3.3226 14.5801 7.33416 14.5801C11.3457 14.5801 14.598 11.3278 14.598 7.31624C14.598 3.30469 11.3457 0.0523987 7.33416 0.0523987ZM9.42064 10.1799C9.10379 10.5655 8.69127 10.8256 8.21 10.9571C8.00076 11.0139 7.9051 11.1245 7.91706 11.3427C7.92603 11.558 7.91706 11.7702 7.91407 11.9854C7.91407 12.1767 7.81543 12.2784 7.6271 12.2844C7.50454 12.2873 7.38199 12.2903 7.25943 12.2903C7.15181 12.2903 7.0442 12.2903 6.93659 12.2873C6.73332 12.2844 6.63767 12.1678 6.63767 11.9705C6.63468 11.815 6.63468 11.6566 6.63468 11.5012C6.63169 11.1544 6.61973 11.1425 6.28793 11.0887C5.86345 11.0199 5.44496 10.9243 5.05636 10.7359C4.75146 10.5865 4.71858 10.5117 4.80526 10.1889C4.87103 9.94976 4.93679 9.71062 5.01152 9.47447C5.06533 9.3011 5.11614 9.22338 5.20881 9.22338C5.26262 9.22338 5.33137 9.25028 5.42404 9.29811C5.85449 9.5223 6.31184 9.64785 6.79311 9.70763C6.87382 9.7166 6.95452 9.72258 7.03523 9.72258C7.25943 9.72258 7.47764 9.68073 7.68988 9.58806C8.22495 9.3549 8.30865 8.73613 7.85727 8.36547C7.70482 8.23992 7.52846 8.14725 7.34611 8.06654C6.8768 7.86029 6.38956 7.70484 5.94715 7.4388C5.22974 7.00835 4.77537 6.41947 4.82918 5.54662C4.88896 4.56017 5.44795 3.94439 6.35369 3.61557C6.72734 3.48105 6.73033 3.48404 6.73033 3.09544C6.73033 2.96392 6.72734 2.83239 6.73332 2.69787C6.74229 2.40493 6.79012 2.35411 7.08306 2.34514C7.11594 2.34514 7.15181 2.34514 7.1847 2.34514C7.24149 2.34514 7.29829 2.34514 7.35508 2.34514C7.379 2.34514 7.40291 2.34514 7.42384 2.34514C7.97983 2.34514 7.97983 2.36906 7.98282 2.96989C7.98581 3.4123 7.98581 3.4123 8.42523 3.48105C8.76301 3.53486 9.08286 3.6335 9.39374 3.77101C9.56413 3.84574 9.62989 3.96531 9.57609 4.14765C9.49837 4.41668 9.42363 4.6887 9.33994 4.95475C9.28613 5.11617 9.23531 5.1909 9.13966 5.1909C9.08585 5.1909 9.02009 5.16997 8.93639 5.12812C8.50594 4.91888 8.05456 4.81724 7.58226 4.81724C7.52248 4.81724 7.45971 4.82023 7.39992 4.82322C7.25943 4.83219 7.12192 4.85012 6.9904 4.90692C6.52407 5.11019 6.44934 5.62434 6.84691 5.9412C7.04719 6.10261 7.27736 6.21621 7.51351 6.31485C7.92603 6.48524 8.33854 6.64964 8.73013 6.86487C9.9617 7.55239 10.2965 9.11576 9.42064 10.1799Z" fill="#613FDD"/>
</g>
<defs>
<clipPath id="clip0_280_737">
<rect width="14.5277" height="14.5277" fill="white" transform="translate(0.0688477 0.053009)"/>
</clipPath>
</defs>
</svg>
