<svg viewBox="0 0 16 17" fill="none" xmlns="http://www.w3.org/2000/svg">
<g clip-path="url(#clip0_280_747)">
<path d="M13.2055 7.29927H3.58761C3.51869 7.29929 3.45074 7.28302 3.3893 7.25177C3.32787 7.22053 3.27469 7.1752 3.23411 7.11949C3.19353 7.06378 3.1667 6.99926 3.15581 6.9312C3.14491 6.86315 3.15026 6.79348 3.17142 6.72788L4.58 2.35612C4.6084 2.26809 4.66399 2.19133 4.73878 2.13689C4.81356 2.08245 4.90369 2.05313 4.99619 2.05316H11.7969C11.8894 2.05313 11.9795 2.08245 12.0543 2.13689C12.1291 2.19133 12.1847 2.26809 12.2131 2.35612L13.6217 6.72788C13.6428 6.79348 13.6482 6.86315 13.6373 6.9312C13.6264 6.99926 13.5996 7.06378 13.559 7.11949C13.5184 7.1752 13.4652 7.22053 13.4038 7.25177C13.3424 7.28302 13.2744 7.29929 13.2055 7.29927ZM14.9542 9.04798H1.83891C1.72296 9.04798 1.61177 9.00192 1.52978 8.91993C1.44779 8.83794 1.40173 8.72675 1.40173 8.6108C1.40173 8.49485 1.44779 8.38366 1.52978 8.30167C1.61177 8.21968 1.72296 8.17362 1.83891 8.17362H14.9542C15.0701 8.17362 15.1813 8.21968 15.2633 8.30167C15.3453 8.38366 15.3914 8.49485 15.3914 8.6108C15.3914 8.72675 15.3453 8.83794 15.2633 8.91993C15.1813 9.00192 15.0701 9.04798 14.9542 9.04798ZM11.894 15.1684C11.3752 15.1684 10.868 15.0146 10.4367 14.7264C10.0053 14.4381 9.6691 14.0285 9.47057 13.5492C9.27203 13.0699 9.22009 12.5425 9.3213 12.0336C9.42251 11.5248 9.67233 11.0574 10.0392 10.6906C10.406 10.3238 10.8734 10.0739 11.3822 9.97273C11.891 9.87152 12.4185 9.92346 12.8978 10.122C13.3771 10.3205 13.7867 10.6567 14.0749 11.0881C14.3632 11.5195 14.517 12.0266 14.517 12.5454C14.5163 13.2408 14.2397 13.9076 13.748 14.3994C13.2562 14.8912 12.5894 15.1677 11.894 15.1684ZM11.894 10.7967C11.5481 10.7967 11.21 10.8992 10.9224 11.0914C10.6349 11.2835 10.4107 11.5566 10.2784 11.8762C10.146 12.1957 10.1114 12.5473 10.1789 12.8865C10.2463 13.2258 10.4129 13.5373 10.6574 13.7819C10.902 14.0265 11.2136 14.193 11.5528 14.2605C11.892 14.328 12.2436 14.2933 12.5632 14.161C12.8827 14.0286 13.1558 13.8045 13.3479 13.5169C13.5401 13.2293 13.6427 12.8912 13.6427 12.5454C13.6427 12.0816 13.4584 11.6368 13.1305 11.3089C12.8025 10.9809 12.3577 10.7967 11.894 10.7967ZM4.89914 15.1684C4.38035 15.1684 3.87321 15.0146 3.44185 14.7264C3.01049 14.4381 2.67429 14.0285 2.47575 13.5492C2.27722 13.0699 2.22528 12.5425 2.32649 12.0336C2.4277 11.5248 2.67752 11.0574 3.04436 10.6906C3.4112 10.3238 3.87859 10.0739 4.38741 9.97273C4.89623 9.87152 5.42364 9.92346 5.90294 10.122C6.38224 10.3205 6.79191 10.6567 7.08013 11.0881C7.36836 11.5195 7.5222 12.0266 7.5222 12.5454C7.5215 13.2408 7.24492 13.9076 6.75315 14.3994C6.26139 14.8912 5.5946 15.1677 4.89914 15.1684ZM4.89914 10.7967C4.55328 10.7967 4.21519 10.8992 3.92761 11.0914C3.64004 11.2835 3.4159 11.5566 3.28355 11.8762C3.15119 12.1957 3.11656 12.5473 3.18404 12.8865C3.25151 13.2258 3.41806 13.5373 3.66262 13.7819C3.90718 14.0265 4.21877 14.193 4.55799 14.2605C4.8972 14.328 5.24881 14.2933 5.56834 14.161C5.88787 14.0286 6.16098 13.8045 6.35313 13.5169C6.54528 13.2293 6.64784 12.8912 6.64784 12.5454C6.64784 12.0816 6.46361 11.6368 6.13566 11.3089C5.80772 10.9809 5.36293 10.7967 4.89914 10.7967ZM9.70808 12.9826C9.59213 12.9826 9.48093 12.9365 9.39895 12.8545C9.31696 12.7725 9.2709 12.6613 9.2709 12.5454C9.2709 12.3135 9.17878 12.0911 9.01481 11.9271C8.85083 11.7632 8.62844 11.671 8.39655 11.671C8.16466 11.671 7.94226 11.7632 7.77829 11.9271C7.61432 12.0911 7.5222 12.3135 7.5222 12.5454C7.5222 12.6613 7.47614 12.7725 7.39415 12.8545C7.31216 12.9365 7.20097 12.9826 7.08502 12.9826C6.96907 12.9826 6.85788 12.9365 6.77589 12.8545C6.6939 12.7725 6.64784 12.6613 6.64784 12.5454C6.64784 12.0816 6.83208 11.6368 7.16003 11.3089C7.48797 10.9809 7.93276 10.7967 8.39655 10.7967C8.86033 10.7967 9.30512 10.9809 9.63307 11.3089C9.96101 11.6368 10.1453 12.0816 10.1453 12.5454C10.1453 12.6613 10.0992 12.7725 10.0172 12.8545C9.93522 12.9365 9.82402 12.9826 9.70808 12.9826Z" fill="#613FDD"/>
</g>
<defs>
<clipPath id="clip0_280_747">
<rect width="15.7383" height="15.7383" fill="white" transform="translate(0.191406 0.842377)"/>
</clipPath>
</defs>
</svg>
