<svg viewBox="0 0 14 15" fill="none" xmlns="http://www.w3.org/2000/svg">
<g clip-path="url(#clip0_280_750)">
<path fill-rule="evenodd" clip-rule="evenodd" d="M5.80899 11.1396C4.72667 11.6096 3.99777 12.6378 3.73582 14.0526C5.44639 13.7354 6.43463 12.7412 6.7487 11.0271C6.48052 11.0542 6.21914 11.0681 5.96373 11.0722L5.80899 11.1396ZM6.69117 10.5807C5.42959 7.78497 3.3251 6.57075 0.274536 6.87551C1.53617 9.67056 3.64037 10.8848 6.69117 10.5807ZM7.01871 10.2197C6.68402 9.51642 6.2921 8.90896 5.84286 8.398L5.76504 8.18971C4.81477 5.64184 5.22437 3.20086 7.01871 0.735596C8.8227 3.21335 9.22835 5.66613 8.2592 8.22443L8.19277 8.40078C7.74441 8.91037 7.35307 9.51712 7.01871 10.2197ZM7.3462 10.5807C10.3976 10.8848 12.5015 9.67056 13.7631 6.87551C10.7117 6.57075 8.60804 7.78567 7.3462 10.5807ZM7.2889 11.0271C7.60308 12.7412 8.59124 13.7354 10.3018 14.0526C10.0399 12.6378 9.31096 11.6096 8.22843 11.1396L8.07388 11.0723C7.81828 11.0681 7.55717 11.0542 7.2889 11.0271Z" fill="#613FDD"/>
</g>
<defs>
<clipPath id="clip0_280_750">
<rect width="13.317" height="13.317" fill="white" transform="translate(0.359375 0.736176)"/>
</clipPath>
</defs>
</svg>
