<svg viewBox="0 0 97 22" fill="none" xmlns="http://www.w3.org/2000/svg">
<path d="M13.4841 5.39368V16.1811C13.4841 16.7144 13.6423 17.2358 13.9386 17.6793C14.235 18.1228 14.6562 18.4685 15.149 18.6726C15.6417 18.8767 16.184 18.9301 16.7071 18.8261C17.2303 18.722 17.7108 18.4652 18.0879 18.088C18.4651 17.7108 18.722 17.2303 18.826 16.7072C18.9301 16.184 18.8767 15.6418 18.6726 15.149C18.4684 14.6562 18.1228 14.235 17.6793 13.9387C17.2358 13.6424 16.7144 13.4842 16.181 13.4842H5.39362C4.86024 13.4842 4.33883 13.6424 3.89534 13.9387C3.45184 14.235 3.10618 14.6562 2.90206 15.149C2.69795 15.6418 2.64454 16.184 2.7486 16.7072C2.85266 17.2303 3.10951 17.7108 3.48667 18.088C3.86383 18.4652 4.34436 18.722 4.86749 18.8261C5.39063 18.9301 5.93287 18.8767 6.42566 18.6726C6.91844 18.4685 7.33963 18.1228 7.63596 17.6793C7.9323 17.2358 8.09046 16.7144 8.09046 16.1811V5.39368C8.09046 4.8603 7.9323 4.33889 7.63596 3.8954C7.33963 3.4519 6.91844 3.10624 6.42566 2.90212C5.93287 2.69801 5.39063 2.6446 4.86749 2.74866C4.34436 2.85272 3.86383 3.10957 3.48667 3.48673C3.10951 3.86389 2.85266 4.34442 2.7486 4.86755C2.64454 5.39069 2.69795 5.93294 2.90206 6.42572C3.10618 6.9185 3.45184 7.33969 3.89534 7.63602C4.33883 7.93236 4.86024 8.09052 5.39362 8.09052H16.181C16.7144 8.09052 17.2358 7.93236 17.6793 7.63602C18.1228 7.33969 18.4684 6.9185 18.6726 6.42572C18.8767 5.93294 18.9301 5.39069 18.826 4.86755C18.722 4.34442 18.4651 3.86389 18.0879 3.48673C17.7108 3.10957 17.2303 2.85272 16.7071 2.74866C16.184 2.6446 15.6417 2.69801 15.149 2.90212C14.6562 3.10624 14.235 3.4519 13.9386 3.8954C13.6423 4.33889 13.4841 4.8603 13.4841 5.39368Z" stroke="white" stroke-width="1.86538" stroke-linecap="round" stroke-linejoin="round"/>
<path d="M30.137 16.2874V4.46829H31.8524V14.6705H37.2038V16.2874H30.137ZM38.7615 5.9703V4.30414H40.4769V5.9703H38.7615ZM38.7615 16.2874V7.42306H40.4769V16.2874H38.7615ZM49.163 16.2874V11.9291C49.163 11.5844 49.1329 11.2314 49.0728 10.8703C49.018 10.5037 48.9086 10.1644 48.7444 9.85254C48.5858 9.54064 48.3587 9.28894 48.0632 9.09743C47.7732 8.90592 47.3929 8.81016 46.9223 8.81016C46.6159 8.81016 46.3259 8.86214 46.0523 8.96611C45.7787 9.0646 45.538 9.22602 45.33 9.45036C45.1276 9.6747 44.9662 9.97018 44.8458 10.3368C44.7309 10.7034 44.6734 11.1494 44.6734 11.6746L43.6064 11.2725C43.6064 10.4681 43.7569 9.75952 44.0578 9.14668C44.3588 8.52836 44.7911 8.04684 45.3547 7.70212C45.9183 7.3574 46.5995 7.18504 47.3984 7.18504C48.0112 7.18504 48.5256 7.28353 48.9414 7.48051C49.3573 7.6775 49.6938 7.93741 49.951 8.26024C50.2136 8.57761 50.4133 8.92507 50.5501 9.30262C50.6869 9.68018 50.78 10.0495 50.8292 10.4107C50.8784 10.7718 50.9031 11.0892 50.9031 11.3628V16.2874H49.163ZM42.9334 16.2874V7.42306H44.4682V9.98386H44.6734V16.2874H42.9334ZM53.0327 16.2874L53.0409 4.46829H54.7809V11.6911L58.261 7.42306H60.4443L56.7672 11.8552L60.8218 16.2874H58.4908L54.7809 12.0194V16.2874H53.0327ZM64.8788 16.5254C63.8009 16.5254 62.9227 16.2874 62.2442 15.8113C61.5657 15.3353 61.1498 14.665 60.9966 13.8004L62.7531 13.5296C62.8625 13.9892 63.1142 14.3531 63.5082 14.6212C63.9076 14.8839 64.4028 15.0152 64.9938 15.0152C65.53 15.0152 65.9486 14.9057 66.2495 14.6869C66.5559 14.468 66.7092 14.167 66.7092 13.784C66.7092 13.5597 66.6544 13.3791 66.545 13.2423C66.441 13.1 66.2194 12.966 65.8802 12.8401C65.5409 12.7143 65.0238 12.5583 64.3289 12.3723C63.5683 12.1753 62.9637 11.9647 62.515 11.7403C62.0718 11.5105 61.7544 11.2451 61.5629 10.9442C61.3769 10.6377 61.2839 10.2684 61.2839 9.83612C61.2839 9.29989 61.4261 8.83205 61.7107 8.43261C61.9952 8.03316 62.3946 7.72401 62.909 7.50514C63.4288 7.28627 64.0362 7.17683 64.7311 7.17683C65.4096 7.17683 66.0142 7.28353 66.545 7.49693C67.0758 7.71033 67.5053 8.01401 67.8336 8.40798C68.1619 8.79648 68.3589 9.25338 68.4246 9.77867L66.6681 10.0988C66.6079 9.67197 66.4082 9.33545 66.069 9.08922C65.7297 8.84299 65.2892 8.70893 64.7475 8.68704C64.2277 8.66516 63.8064 8.75271 63.4835 8.94969C63.1607 9.1412 62.9993 9.40659 62.9993 9.74584C62.9993 9.94282 63.0595 10.1097 63.1799 10.2465C63.3057 10.3833 63.5465 10.5146 63.9021 10.6405C64.2578 10.7663 64.7831 10.9168 65.478 11.0919C66.2222 11.2834 66.8131 11.4968 67.2509 11.7321C67.6886 11.9619 68.0005 12.2382 68.1865 12.5611C68.3781 12.8784 68.4738 13.2642 68.4738 13.7184C68.4738 14.5938 68.1537 15.2806 67.5135 15.7785C66.8788 16.2764 66.0006 16.5254 64.8788 16.5254ZM74.2214 16.5336C73.3404 16.5336 72.5662 16.3421 71.8986 15.9591C71.2365 15.5706 70.7194 15.0316 70.3473 14.3421C69.9807 13.6472 69.7974 12.8429 69.7974 11.9291C69.7974 10.9606 69.978 10.1207 70.3391 9.40932C70.7057 8.69799 71.2146 8.14807 71.8658 7.75958C72.5169 7.37108 73.2748 7.17683 74.1393 7.17683C75.0421 7.17683 75.8109 7.38749 76.4457 7.80882C77.0804 8.22468 77.5537 8.81837 77.8656 9.58989C78.183 10.3614 78.3088 11.2779 78.2431 12.3395H76.5277V11.7157C76.5168 10.687 76.3198 9.92641 75.9368 9.43394C75.5592 8.94148 74.982 8.69525 74.205 8.69525C73.3459 8.69525 72.7002 8.96611 72.2679 9.50781C71.8357 10.0495 71.6195 10.832 71.6195 11.8552C71.6195 12.8292 71.8357 13.5843 72.2679 14.1205C72.7002 14.6513 73.324 14.9167 74.1393 14.9167C74.6755 14.9167 75.1379 14.7963 75.5264 14.5555C75.9204 14.3093 76.2268 13.9591 76.4457 13.505L78.1282 14.0385C77.7835 14.8319 77.261 15.4474 76.5606 15.8852C75.8602 16.3175 75.0804 16.5336 74.2214 16.5336ZM71.0614 12.3395V11.0016H77.3895V12.3395H71.0614ZM80.0846 16.2874V7.42306H81.6113V9.57348L81.3979 9.29441C81.5073 9.00988 81.6496 8.74997 81.8247 8.51468C81.9997 8.27392 82.2022 8.07694 82.432 7.92373C82.6564 7.75958 82.9053 7.63372 83.1789 7.54618C83.458 7.45315 83.7425 7.39844 84.0325 7.38202C84.3225 7.36013 84.6016 7.37381 84.8697 7.42306V9.03177C84.5797 8.95516 84.2569 8.93328 83.9012 8.96611C83.551 8.99894 83.2282 9.11111 82.9327 9.30262C82.6536 9.48319 82.432 9.70206 82.2679 9.95924C82.1092 10.2164 81.9943 10.5037 81.9231 10.821C81.852 11.1329 81.8164 11.464 81.8164 11.8142V16.2874H80.0846ZM88.6796 16.5336C88.023 16.5336 87.4731 16.4132 87.0299 16.1725C86.5867 15.9262 86.2501 15.6034 86.0203 15.204C85.796 14.799 85.6838 14.3558 85.6838 13.8743C85.6838 13.4256 85.7631 13.0317 85.9218 12.6924C86.0805 12.3531 86.3158 12.0659 86.6277 11.8306C86.9396 11.5898 87.3226 11.3956 87.7768 11.2478C88.1707 11.1329 88.6167 11.0317 89.1146 10.9442C89.6126 10.8566 90.1351 10.7745 90.6823 10.6979C91.2349 10.6213 91.7821 10.5447 92.3238 10.4681L91.7 10.8128C91.711 10.1179 91.5633 9.60357 91.2568 9.26979C90.9559 8.93054 90.4361 8.76091 89.6974 8.76091C89.2323 8.76091 88.8055 8.87035 88.417 9.08922C88.0285 9.30262 87.7576 9.65829 87.6044 10.1562L86.0039 9.66376C86.2228 8.90318 86.6386 8.29855 87.2515 7.84986C87.8698 7.40117 88.6906 7.17683 89.7138 7.17683C90.5072 7.17683 91.1966 7.31362 91.7821 7.58721C92.3731 7.85533 92.8053 8.28213 93.0789 8.86761C93.2212 9.15762 93.3088 9.46404 93.3416 9.78688C93.3744 10.1097 93.3908 10.4572 93.3908 10.8293V16.2874H91.8724V14.2601L92.1679 14.5227C91.8013 15.2012 91.3334 15.7074 90.7644 16.0411C90.2008 16.3694 89.5059 16.5336 88.6796 16.5336ZM88.9833 15.1301C89.4703 15.1301 89.8889 15.0453 90.2391 14.8756C90.5893 14.7005 90.8711 14.4789 91.0845 14.2108C91.2979 13.9427 91.4374 13.6636 91.5031 13.3736C91.5961 13.111 91.6481 12.8155 91.659 12.4872C91.6754 12.1589 91.6836 11.8963 91.6836 11.6993L92.2418 11.9045C91.7 11.9865 91.2076 12.0604 90.7644 12.1261C90.3212 12.1917 89.919 12.2574 89.5578 12.3231C89.2022 12.3832 88.8848 12.4571 88.6057 12.5447C88.3705 12.6267 88.1598 12.7252 87.9738 12.8401C87.7932 12.955 87.6482 13.0946 87.5387 13.2587C87.4348 13.4229 87.3828 13.6226 87.3828 13.8579C87.3828 14.0877 87.4403 14.3011 87.5552 14.4981C87.6701 14.6896 87.8452 14.8428 88.0805 14.9577C88.3157 15.0726 88.6167 15.1301 88.9833 15.1301Z" fill="white"/>
</svg>
