<svg viewBox="0 0 15 16" fill="none" xmlns="http://www.w3.org/2000/svg">
<g clip-path="url(#clip0_280_743)">
<path d="M5.51201 12.9958C5.77401 13.2259 6.04446 13.4632 6.32266 13.7093C6.32455 13.7109 6.32649 13.7126 6.32843 13.7143L7.25391 14.5137C7.37791 14.6209 7.5318 14.6744 7.6857 14.6744C7.83959 14.6744 7.99353 14.6208 8.11753 14.5137L9.04283 13.7143C9.04477 13.7126 9.04667 13.711 9.04856 13.7093C10.8806 12.0891 12.2542 10.8487 13.248 9.6389C14.4087 8.22597 14.9494 6.94844 14.9494 5.61847C14.9494 3.21225 13.0645 1.32742 10.6584 1.32742C9.57695 1.32742 8.50841 1.73464 7.6857 2.44053C6.86277 1.7346 5.79422 1.32742 4.71273 1.32742C2.3065 1.32738 0.421631 3.21225 0.421631 5.61843C0.421631 8.52702 2.4467 10.3048 5.51201 12.9958ZM5.0435 6.67998H6.80477V4.91862H8.56613V6.67998H10.3275V8.44129H8.56613V10.2026H6.80477V8.44129H5.0435V6.67998Z" fill="#613FDD"/>
</g>
<defs>
<clipPath id="clip0_280_743">
<rect width="14.5277" height="14.5277" fill="white" transform="translate(0.420898 0.736176)"/>
</clipPath>
</defs>
</svg>
