<svg viewBox="0 0 25 24" fill="none" xmlns="http://www.w3.org/2000/svg">
<path d="M6.58545 2L3.58545 6V20C3.58545 20.5304 3.79616 21.0391 4.17124 21.4142C4.54631 21.7893 5.05502 22 5.58545 22H19.5854C20.1159 22 20.6246 21.7893 20.9997 21.4142C21.3747 21.0391 21.5854 20.5304 21.5854 20V6L18.5854 2H6.58545Z" stroke="#B3B3B3" stroke-width="1.5" stroke-linecap="round" stroke-linejoin="round"/>
<path d="M3.58545 6H21.5854" stroke="#B3B3B3" stroke-width="1.5" stroke-linecap="round" stroke-linejoin="round"/>
<path d="M16.5854 10C16.5854 11.0609 16.164 12.0783 15.4139 12.8284C14.6637 13.5786 13.6463 14 12.5854 14C11.5246 14 10.5072 13.5786 9.75702 12.8284C9.00688 12.0783 8.58545 11.0609 8.58545 10" stroke="#B3B3B3" stroke-width="1.5" stroke-linecap="round" stroke-linejoin="round"/>
</svg>
