<svg viewBox="0 0 151 58" fill="none" xmlns="http://www.w3.org/2000/svg">
<path d="M28.3059 20.3678L28.2961 20.3703L24.5079 21.4019L24.5038 21.3532L24.4999 21.4019L20.702 20.3678C20.702 20.3678 19.9691 18.9125 19.7243 17.3053C19.7243 17.3047 19.724 17.3042 19.724 17.3036C19.7138 17.2364 19.7043 17.1686 19.696 17.1008C19.6348 16.6107 19.6235 16.112 19.6954 15.6403C19.7568 14.829 21.4227 11.4059 24.4696 11.2472V11.2428C24.4799 11.2434 24.4896 11.2447 24.4999 11.245C24.5099 11.245 24.5199 11.2434 24.5302 11.2428V11.2472C27.4418 11.3989 29.0927 14.532 29.2869 15.5175C29.2869 15.518 29.2869 15.5183 29.2869 15.5188C29.2971 15.5569 29.3055 15.5975 29.3121 15.6403C29.6314 17.7345 28.3056 20.3678 28.3056 20.3678H28.3059Z" fill="#613FDD"/>
<path d="M38.9094 31.442C38.7277 32.286 38.1206 33.0131 37.351 33.4043C36.5812 33.7952 35.666 33.8621 34.8278 33.6549C34.5061 33.5754 34.1869 33.4529 33.9354 33.2367C33.4676 32.8342 33.3117 32.1096 33.5731 31.5501C33.8343 30.9905 34.4897 30.6449 35.099 30.7452C35.7082 30.8455 36.2183 31.3834 36.2864 31.9971C36.2914 32.0418 36.2975 32.0932 36.335 32.1185C36.3628 32.1374 36.3995 32.1354 36.4328 32.131C36.7959 32.0857 37.1385 31.8737 37.3269 31.5601C37.5155 31.2464 37.54 30.836 37.3749 30.5093C37.1874 30.1373 36.7879 29.91 36.3809 29.8214C35.9736 29.7325 35.5516 29.7617 35.1351 29.7781C34.1257 29.8172 33.1053 29.7761 32.1248 29.5325C29.5988 28.9049 27.0734 26.8036 26.0865 24.3777C25.3831 22.6482 24.654 22.4679 24.4998 22.4492C24.3454 22.4679 23.6163 22.6482 22.9129 24.3777C21.926 26.8036 19.4006 28.9049 16.8746 29.5325C15.8944 29.7761 14.8739 29.8172 13.8643 29.7781C13.4481 29.7617 13.0258 29.7325 12.6188 29.8214C12.2115 29.91 11.8123 30.1373 11.6245 30.5093C11.4597 30.836 11.4839 31.2464 11.6725 31.5601C11.8612 31.8737 12.2035 32.0857 12.5666 32.131C12.5999 32.1354 12.6366 32.1374 12.6647 32.1185C12.7019 32.0932 12.7083 32.0418 12.7133 31.9971C12.7811 31.3834 13.2912 30.8455 13.9004 30.7452C14.5097 30.6449 15.1651 30.9905 15.4265 31.5501C15.6877 32.1096 15.5321 32.8342 15.064 33.2367C14.8125 33.4529 14.4936 33.5754 14.1716 33.6549C13.3337 33.8621 12.4182 33.7952 11.6486 33.4043C10.8788 33.0131 10.2717 32.286 10.09 31.442C9.90832 30.5979 10.1823 29.655 10.8324 29.0868C11.3844 28.6048 12.1382 28.4209 12.8689 28.3681C14.5108 28.2497 16.2122 28.4851 17.7522 27.756C19.8437 26.7661 21.5763 24.6252 21.6588 23.5856C21.7413 22.5459 21.3948 21.4735 20.7019 20.3678L24.4998 21.4018L24.5037 21.3532L24.5079 21.4018L28.2961 20.3703C27.604 21.4752 27.2581 22.5468 27.3406 23.5856C27.4231 24.6252 29.1557 26.7661 31.2472 27.756C32.7872 28.4851 34.4889 28.2497 36.1305 28.3681C36.8615 28.4209 37.6153 28.6048 38.167 29.0868C38.8171 29.655 39.0911 30.5979 38.9094 31.442Z" fill="#613FDD"/>
<path d="M29.3921 41.5327C28.5884 41.5327 27.9369 42.1842 27.9369 42.988C27.9369 43.7917 28.5884 44.4432 29.3921 44.4432C29.4382 44.4432 29.4838 44.4405 29.5288 44.4363C29.4296 45.0175 28.9234 45.4618 28.3144 45.4618C27.6343 45.4618 27.0809 44.9083 27.0809 44.2282V27.2977C26.5302 26.7309 26.0987 26.1741 25.7856 25.7218V44.2279C25.7856 45.6223 26.92 46.7567 28.3144 46.7567C29.7088 46.7567 30.8432 45.6223 30.8432 44.2279V43.0694C30.8446 43.0422 30.8474 43.0152 30.8474 42.9877C30.8474 42.184 30.1959 41.5324 29.3921 41.5324V41.5327Z" fill="#613FDD"/>
<path d="M30.9224 35.3697C30.129 35.3697 29.4858 36.0128 29.4858 36.8063C29.4858 37.5998 30.129 38.243 30.9224 38.243C30.9266 38.243 30.9308 38.2424 30.9349 38.2424C30.7805 38.513 30.4893 38.6964 30.1559 38.6964C29.6614 38.6964 29.2588 38.2941 29.2588 37.7995V29.0321C28.7857 28.7521 28.3539 28.4406 27.9636 28.1164V37.7993C27.9636 39.0081 28.9471 39.9916 30.1559 39.9916C31.3647 39.9916 32.3483 39.0081 32.3483 37.7993V36.9755C32.3546 36.9199 32.3591 36.8635 32.3591 36.8063C32.3591 36.0128 31.7159 35.3697 30.9224 35.3697Z" fill="#613FDD"/>
<path d="M27.9413 22.142C27.6379 23.3816 28.1052 24.6758 29.0884 25.4895C29.5291 25.8543 30.0433 26.213 30.6407 26.54C32.0134 27.2918 33.7654 27.5127 35.3493 27.5127C35.9922 27.5127 36.6073 27.4763 37.1582 27.4243C38.3315 27.3137 39.1825 26.2388 38.9663 25.0192C38.9208 24.7622 38.823 24.5152 38.6793 24.2974C38.2809 23.6934 37.6308 23.3502 36.9373 23.3633L35.9922 23.3761C35.848 23.3614 35.6971 23.37 35.5418 23.4105C35.0228 23.5456 34.6364 24.0079 34.5983 24.543C34.5452 25.2845 35.1312 25.9024 35.8613 25.9024C36.5464 25.9024 37.1032 25.3578 37.1257 24.6783C37.2599 24.7083 37.3841 24.7727 37.4844 24.8716C37.6264 25.0116 37.7047 25.1989 37.7047 25.3984C37.7047 25.7823 37.4174 26.0988 37.0368 26.1349C35.6224 26.2685 32.9916 26.3508 31.263 25.4042C28.9931 24.1612 28.111 22.379 27.9646 22.0525C27.9568 22.0814 27.9491 22.1114 27.9416 22.1422L27.9413 22.142Z" fill="#613FDD"/>
<path d="M21.9188 44.2282C21.9188 44.9083 21.3653 45.4618 20.6852 45.4618C20.0762 45.4618 19.57 45.0175 19.4708 44.4363C19.5158 44.4405 19.5614 44.4432 19.6075 44.4432C20.4113 44.4432 21.0628 43.7917 21.0628 42.988C21.0628 42.1842 20.4113 41.5327 19.6075 41.5327C18.8038 41.5327 18.1523 42.1842 18.1523 42.988C18.1523 43.0155 18.1548 43.0424 18.1564 43.0697V44.2282C18.1564 45.6226 19.2908 46.757 20.6852 46.757C22.0796 46.757 23.214 45.6226 23.214 44.2282V25.7221C22.9009 26.1741 22.4694 26.7309 21.9188 27.2979V44.2285V44.2282Z" fill="#613FDD"/>
<path d="M21.0361 37.7993V28.1164C20.6458 28.4406 20.214 28.7521 19.7409 29.0321V37.7995C19.7409 38.2941 19.3386 38.6964 18.8438 38.6964C18.5104 38.6964 18.2195 38.513 18.0647 38.2424C18.0689 38.2424 18.0731 38.243 18.0772 38.243C18.8707 38.243 19.5139 37.5998 19.5139 36.8063C19.5139 36.0128 18.8707 35.3697 18.0772 35.3697C17.2838 35.3697 16.6406 36.0128 16.6406 36.8063C16.6406 36.8635 16.6448 36.9199 16.6514 36.9755V37.7993C16.6514 39.0081 17.6349 39.9916 18.8438 39.9916C20.0526 39.9916 21.0361 39.0081 21.0361 37.7993Z" fill="#613FDD"/>
<path d="M11.8415 27.4243C12.3924 27.4763 13.0075 27.5127 13.6504 27.5127C15.2343 27.5127 16.9863 27.2918 18.359 26.54C18.9564 26.2127 19.4706 25.854 19.9113 25.4895C20.8945 24.6758 21.3621 23.3816 21.0584 22.142C21.0509 22.1111 21.0431 22.0811 21.0354 22.0522C20.8887 22.3787 20.0068 24.1607 17.737 25.404C16.0083 26.3508 13.3776 26.2683 11.9632 26.1346C11.5823 26.0988 11.2953 25.7821 11.2953 25.3981C11.2953 25.1986 11.3736 25.0117 11.5156 24.8714C11.6162 24.7722 11.7401 24.7077 11.8743 24.678C11.8968 25.3576 12.4535 25.9021 13.1387 25.9021C13.8688 25.9021 14.4547 25.2842 14.4017 24.5427C14.3636 24.0076 13.9771 23.5453 13.4582 23.4103C13.3029 23.37 13.1517 23.3611 13.0078 23.3758L12.0626 23.363C11.3692 23.35 10.7191 23.6931 10.3207 24.2971C10.177 24.5149 10.0792 24.7619 10.0337 25.0189C9.8175 26.2386 10.6685 27.3135 11.8418 27.424L11.8415 27.4243Z" fill="#613FDD"/>
<path d="M29.2129 17.7062C29.773 18.7533 28.5695 19.4698 27.7171 19.7279C27.6779 19.4918 27.7385 19.2062 27.8235 18.9817C28.0611 18.3541 28.5889 17.9304 29.2126 17.7062H29.2129Z" fill="white"/>
<path d="M19.7957 17.7062C19.2356 18.7533 20.4391 19.4698 21.2915 19.7279C21.3307 19.4918 21.2701 19.2062 21.1851 18.9817C20.9476 18.3541 20.4197 17.9304 19.796 17.7062H19.7957Z" fill="white"/>
<path d="M50.2552 37.5V21.66H52.5542V29.052L59.1872 21.66H62.0472L55.0402 29.393L62.5642 37.5H59.6162L52.5542 29.932V37.5H50.2552ZM64.1126 37.5V25.62H66.1586V28.502L65.8726 28.128C66.0193 27.7467 66.21 27.3983 66.4446 27.083C66.6793 26.7603 66.9506 26.4963 67.2586 26.291C67.5593 26.071 67.893 25.9023 68.2596 25.785C68.6336 25.6603 69.015 25.587 69.4036 25.565C69.7923 25.5357 70.1663 25.554 70.5256 25.62V27.776C70.137 27.6733 69.7043 27.644 69.2276 27.688C68.7583 27.732 68.3256 27.8823 67.9296 28.139C67.5556 28.381 67.2586 28.6743 67.0386 29.019C66.826 29.3637 66.672 29.7487 66.5766 30.174C66.4813 30.592 66.4336 31.0357 66.4336 31.505V37.5H64.1126ZM75.6317 37.83C74.7517 37.83 74.0147 37.6687 73.4207 37.346C72.8267 37.016 72.3757 36.5833 72.0677 36.048C71.767 35.5053 71.6167 34.9113 71.6167 34.266C71.6167 33.6647 71.723 33.1367 71.9357 32.682C72.1484 32.2273 72.4637 31.8423 72.8817 31.527C73.2997 31.2043 73.813 30.944 74.4217 30.746C74.9497 30.592 75.5474 30.4563 76.2147 30.339C76.882 30.2217 77.5824 30.1117 78.3157 30.009C79.0564 29.9063 79.7897 29.8037 80.5157 29.701L79.6797 30.163C79.6944 29.2317 79.4964 28.5423 79.0857 28.095C78.6824 27.6403 77.9857 27.413 76.9957 27.413C76.3724 27.413 75.8004 27.5597 75.2797 27.853C74.759 28.139 74.396 28.6157 74.1907 29.283L72.0457 28.623C72.339 27.6037 72.8964 26.7933 73.7177 26.192C74.5464 25.5907 75.6464 25.29 77.0177 25.29C78.081 25.29 79.005 25.4733 79.7897 25.84C80.5817 26.1993 81.161 26.7713 81.5277 27.556C81.7184 27.9447 81.8357 28.3553 81.8797 28.788C81.9237 29.2207 81.9457 29.6863 81.9457 30.185V37.5H79.9107V34.783L80.3067 35.135C79.8154 36.0443 79.1884 36.7227 78.4257 37.17C77.6704 37.61 76.739 37.83 75.6317 37.83ZM76.0387 35.949C76.6914 35.949 77.2524 35.8353 77.7217 35.608C78.191 35.3733 78.5687 35.0763 78.8547 34.717C79.1407 34.3577 79.3277 33.9837 79.4157 33.595C79.5404 33.243 79.61 32.847 79.6247 32.407C79.6467 31.967 79.6577 31.615 79.6577 31.351L80.4057 31.626C79.6797 31.736 79.0197 31.835 78.4257 31.923C77.8317 32.011 77.2927 32.099 76.8087 32.187C76.332 32.2677 75.9067 32.3667 75.5327 32.484C75.2174 32.594 74.935 32.726 74.6857 32.88C74.4437 33.034 74.2494 33.221 74.1027 33.441C73.9634 33.661 73.8937 33.9287 73.8937 34.244C73.8937 34.552 73.9707 34.838 74.1247 35.102C74.2787 35.3587 74.5134 35.564 74.8287 35.718C75.144 35.872 75.5474 35.949 76.0387 35.949ZM84.7911 37.5L84.8021 21.66H87.1341V31.34L91.7981 25.62H94.7241L89.7961 31.56L95.2301 37.5H92.1061L87.1341 31.78V37.5H84.7911ZM101.393 37.83C100.213 37.83 99.175 37.5733 98.2804 37.06C97.393 36.5393 96.7 35.817 96.2014 34.893C95.71 33.9617 95.4644 32.8837 95.4644 31.659C95.4644 30.361 95.7064 29.2353 96.1904 28.282C96.6817 27.3287 97.3637 26.5917 98.2364 26.071C99.109 25.5503 100.125 25.29 101.283 25.29C102.493 25.29 103.524 25.5723 104.374 26.137C105.225 26.6943 105.859 27.49 106.277 28.524C106.703 29.558 106.871 30.7863 106.783 32.209H104.484V31.373C104.47 29.9943 104.206 28.975 103.692 28.315C103.186 27.655 102.413 27.325 101.371 27.325C100.22 27.325 99.3547 27.688 98.7754 28.414C98.196 29.14 97.9064 30.1887 97.9064 31.56C97.9064 32.8653 98.196 33.8773 98.7754 34.596C99.3547 35.3073 100.191 35.663 101.283 35.663C102.002 35.663 102.622 35.5017 103.142 35.179C103.67 34.849 104.081 34.3797 104.374 33.771L106.629 34.486C106.167 35.5493 105.467 36.3743 104.528 36.961C103.59 37.5403 102.545 37.83 101.393 37.83ZM97.1584 32.209V30.416H105.639V32.209H97.1584ZM117.267 37.5V31.659C117.267 31.197 117.227 30.724 117.146 30.24C117.073 29.7487 116.926 29.294 116.706 28.876C116.493 28.458 116.189 28.1207 115.793 27.864C115.404 27.6073 114.895 27.479 114.264 27.479C113.853 27.479 113.465 27.5487 113.098 27.688C112.731 27.82 112.409 28.0363 112.13 28.337C111.859 28.6377 111.642 29.0337 111.481 29.525C111.327 30.0163 111.25 30.614 111.25 31.318L109.82 30.779C109.82 29.701 110.022 28.7513 110.425 27.93C110.828 27.1013 111.408 26.456 112.163 25.994C112.918 25.532 113.831 25.301 114.902 25.301C115.723 25.301 116.413 25.433 116.97 25.697C117.527 25.961 117.978 26.3093 118.323 26.742C118.675 27.1673 118.943 27.633 119.126 28.139C119.309 28.645 119.434 29.14 119.5 29.624C119.566 30.108 119.599 30.5333 119.599 30.9V37.5H117.267ZM108.918 37.5V25.62H110.975V29.052H111.25V37.5H108.918Z" fill="#0F0C1B"/>
</svg>
