<svg viewBox="0 0 25 24" fill="none" xmlns="http://www.w3.org/2000/svg">
<path d="M21.5854 16V8C21.5851 7.64927 21.4925 7.30481 21.317 7.00116C21.1415 6.69751 20.8892 6.44536 20.5854 6.27L13.5854 2.27C13.2814 2.09446 12.9365 2.00205 12.5854 2.00205C12.2344 2.00205 11.8895 2.09446 11.5854 2.27L4.58545 6.27C4.28171 6.44536 4.02943 6.69751 3.85391 7.00116C3.67839 7.30481 3.58581 7.64927 3.58545 8V16C3.58581 16.3507 3.67839 16.6952 3.85391 16.9988C4.02943 17.3025 4.28171 17.5546 4.58545 17.73L11.5854 21.73C11.8895 21.9055 12.2344 21.9979 12.5854 21.9979C12.9365 21.9979 13.2814 21.9055 13.5854 21.73L20.5854 17.73C20.8892 17.5546 21.1415 17.3025 21.317 16.9988C21.4925 16.6952 21.5851 16.3507 21.5854 16Z" stroke="#B3B3B3" stroke-width="1.5" stroke-linecap="round" stroke-linejoin="round"/>
<path d="M12.5854 16C14.7946 16 16.5854 14.2091 16.5854 12C16.5854 9.79086 14.7946 8 12.5854 8C10.3763 8 8.58545 9.79086 8.58545 12C8.58545 14.2091 10.3763 16 12.5854 16Z" stroke="#B3B3B3" stroke-width="1.5" stroke-linecap="round" stroke-linejoin="round"/>
</svg>
